<?xml version="1.0" encoding="UTF-8" standalone="no"?>
<!-- Created with Inkscape (http://www.inkscape.org/) -->

<svg
   width="186.88361mm"
   height="170.91141mm"
   viewBox="0 0 186.88361 170.91141"
   version="1.1"
   id="svg5"
   xml:space="preserve"
   xmlns:inkscape="http://www.inkscape.org/namespaces/inkscape"
   xmlns:sodipodi="http://sodipodi.sourceforge.net/DTD/sodipodi-0.dtd"
   xmlns="http://www.w3.org/2000/svg"
   xmlns:svg="http://www.w3.org/2000/svg"><sodipodi:namedview
     id="namedview7"
     pagecolor="#ffffff"
     bordercolor="#000000"
     borderopacity="0.25"
     inkscape:showpageshadow="2"
     inkscape:pageopacity="0.0"
     inkscape:pagecheckerboard="0"
     inkscape:deskcolor="#d1d1d1"
     inkscape:document-units="mm"
     showgrid="false" /><defs
     id="defs2" /><g
     inkscape:label="Capa 1"
     inkscape:groupmode="layer"
     id="layer1"
     transform="translate(230.89098,-2.3782851)"><path
       style="fill:#000000;stroke-width:0.352778"
       d="m -150.84248,173.25626 c -0.0478,-0.0405 -1.40152,-0.18158 -3.00822,-0.31351 -4.0189,-0.32999 -13.05669,-1.9433 -14.894,-2.65869 -0.48507,-0.18886 -1.27882,-0.41152 -1.76389,-0.4948 -0.48507,-0.0833 -1.51695,-0.3878 -2.29306,-0.67674 -0.77611,-0.28893 -2.33358,-0.86474 -3.46105,-1.27957 -3.4917,-1.28472 -8.75661,-3.75047 -12.03024,-5.6342 -1.72193,-0.99085 -3.19248,-1.80154 -3.26788,-1.80154 -0.0754,0 -1.44169,-0.90528 -3.03619,-2.01173 -11.44976,-7.94521 -21.07573,-18.85995 -27.00469,-30.62021 -0.29346,-0.58209 -0.62538,-1.13771 -0.73759,-1.23473 -0.11221,-0.097 -0.2378,-0.33513 -0.27907,-0.52916 -0.0413,-0.19403 -0.76732,-2.01966 -1.61343,-4.05695 -0.84611,-2.03729 -1.66963,-4.02166 -1.83003,-4.40972 -0.16041,-0.38805 -0.34288,-0.96172 -0.40549,-1.27482 -0.0626,-0.3131 -0.29935,-1.02748 -0.52607,-1.5875 -0.22673,-0.56003 -0.44992,-1.25636 -0.49598,-1.5474 -0.0461,-0.29104 -0.48865,-2.11667 -0.98354,-4.05694 -0.98125,-3.84709 -1.84433,-8.8292 -2.20008,-12.700015 -0.57601,-6.2673 0.0366,-17.10981 1.28324,-22.71278 0.1892,-0.85036 0.26062,-1.62951 0.15869,-1.73143 -0.10192,-0.10192 -0.0102,-0.39633 0.20388,-0.65425 0.21405,-0.25792 0.29898,-0.704 0.18873,-0.9913 -0.11025,-0.2873 -0.0661,-0.60541 0.0982,-0.70691 0.24283,-0.15007 0.65844,-1.55095 1.62655,-5.48249 0.0239,-0.097 0.23287,-0.6346 0.4644,-1.19462 0.23153,-0.56003 0.4726,-1.2744 0.53571,-1.5875 0.0631,-0.3131 0.35928,-1.11658 0.65817,-1.78552 0.29889,-0.66893 0.45411,-1.44904 0.34493,-1.73356 -0.11895,-0.30997 -0.0482,-0.4244 0.17658,-0.2855 0.31688,0.19585 0.52745,-0.21281 0.96868,-1.87997 0.0573,-0.21636 2.96883,-5.93469 4.1313,-8.11389 0.46576,-0.87312 1.51514,-2.57097 2.33194,-3.773 0.81681,-1.20203 1.48511,-2.35296 1.48511,-2.55764 0,-0.20467 0.12452,-0.37213 0.27671,-0.37213 0.1522,0 0.571,-0.49818 0.93068,-1.10707 0.35967,-0.60888 0.90984,-1.383785 1.22259,-1.722004 0.31274,-0.338218 0.85229,-0.990973 1.19899,-1.450572 1.9319,-2.560993 7.13322,-7.979952 9.94453,-10.360635 1.14561,-0.970139 2.33942,-2.002014 2.65289,-2.293056 0.31348,-0.291041 1.35484,-1.079882 2.31414,-1.752978 0.9593,-0.673096 2.13944,-1.585909 2.62253,-2.028472 0.48308,-0.442563 1.00545,-0.804661 1.16081,-0.804661 0.25036,0 2.26307,-1.303615 2.72335,-1.763888 0.097,-0.09701 1.20826,-0.720285 2.46944,-1.385046 1.26118,-0.664761 2.37243,-1.301428 2.46945,-1.414816 0.097,-0.113388 1.04951,-0.601367 2.11666,-1.084399 1.06715,-0.483031 1.9932,-0.997302 2.05787,-1.142822 0.0647,-0.145521 0.35769,-0.264584 0.65113,-0.264584 0.29344,0 1.03427,-0.260793 1.64629,-0.57954 2.04674,-1.065964 2.33502,-1.184349 2.88402,-1.184349 0.44147,0 0.51175,-0.321048 0.36678,-1.6756939 -0.0986,-0.921632 -0.26367,-2.741515 -0.36676,-4.044184 l -0.18745,-2.36849 2.91226,0.162887 c 1.60173,0.08959 3.3885,0.248711 3.97058,0.353607 3.02057,0.544334 6.38911,1.365076 6.68514,1.628832 0.18433,0.16423 0.5965,0.298599 0.91594,0.298599 0.31944,0 1.06841,0.243252 1.66438,0.540561 0.87868,0.438344 1.50599,0.475311 3.31739,0.195496 3.37438,-0.521254 8.54297,-0.863318 12.28798,-0.813236 3.33756,0.04463 8.46389,0.391641 8.8126,0.596536 0.10078,0.05921 1.13573,0.223988 2.2999,0.366168 1.16417,0.142181 2.51354,0.327356 2.99861,0.411501 1.72665,0.299522 3.37832,0.318529 5.28693,0.06084 8.28212,-1.118203 11.6669,-1.081247 22.16231,0.241974 2.19423,0.276641 4.099231,0.480463 4.233331,0.452937 0.1341,-0.02752 0.69071,0.13434 1.23692,0.359699 0.54621,0.22536 1.27542,0.409745 1.62047,0.409745 0.34505,0 1.48565,0.295295 2.53467,0.656211 1.04902,0.360917 2.06606,0.698628 2.26009,0.750471 0.79571,0.212608 1.5788,0.517169 5.09866,1.9829809 2.02814,0.844605 3.77439,1.401347 3.88055,1.237205 0.10616,-0.164141 0.5502,-0.409908 0.98676,-0.546148 0.43657,-0.136241 0.79375,-0.377247 0.79375,-0.53557 0,-0.158323 0.27782,-0.38549 0.61737,-0.504815 0.33954,-0.119325 1.56986,-0.7788049 2.73402,-1.4655099 1.16417,-0.686705 2.51354,-1.437797 2.99861,-1.669093 0.48507,-0.231295 0.96132,-0.503144 1.05834,-0.604107 0.18172,-0.18912 1.10949,-0.556085 4.7625,-1.883733 1.16416,-0.423104 2.16991,-0.889332 2.23499,-1.036062 0.0651,-0.146729 0.24296,-0.189751 0.3953,-0.0956 0.15233,0.09415 1.21034,-0.07535 2.35112,-0.37666 1.14078,-0.301312 3.87984,-0.657548 6.08679,-0.791637 l 4.01265,-0.243799 -0.24075,3.180296 c -0.13241,1.749162 -0.32226,4.6090439 -0.42187,6.3552939 -0.20356,3.568319 -0.57225,5.459143 -1.51331,7.761111 -0.23796,0.582083 -0.52597,1.534583 -0.64002,2.116667 -0.11405,0.582083 -0.43826,1.41552 -0.72046,1.852083 -0.2822,0.436562 -0.38371,0.79375 -0.22557,0.79375 0.15813,0 0.097,0.1905 -0.13582,0.423333 -0.23283,0.232834 -0.42333,0.709084 -0.42333,1.058334 0,0.34925 -0.15875,0.635 -0.35278,0.635 -0.19403,0 -0.35278,0.166092 -0.35278,0.369094 0,0.203002 -0.71437,1.817489 -1.5875,3.587749 -0.87312,1.77026 -1.5875,3.315077 -1.5875,3.432926 0,0.279519 1.93928,2.589714 3.61598,4.307597 0.7276,0.745479 1.32781,1.474469 1.33379,1.619999 0.006,0.14552 0.56161,0.84576 1.23472,1.5561 0.67312,0.71034 1.22385,1.44741 1.22385,1.63795 0,0.19054 0.23959,0.43837 0.53244,0.55075 0.29284,0.11237 0.49614,0.32779 0.45179,0.47871 -0.0693,0.23565 1.66898,3.11683 2.18746,3.62579 0.0988,0.097 0.45653,0.73201 0.79488,1.41111 0.33835,0.6791 0.76738,1.47285 0.95338,1.76389 0.18601,0.29104 0.61528,1.16417 0.95394,1.94028 0.33865,0.77611 0.75662,1.50823 0.92883,1.62694 0.1722,0.11871 0.29369,0.3189 0.26997,0.44487 -0.0836,0.44399 0.80317,3.04347 1.03824,3.04347 0.13098,0 0.25051,0.19843 0.26563,0.44097 0.0151,0.24253 0.41724,1.9491 0.89362,3.79236 1.45607,5.63411 1.41663,5.29167 0.60953,5.29167 -0.39439,0 -0.99272,-0.15399 -1.32964,-0.34219 -0.5282,-0.29505 -6.83227,-2.54485 -8.64594,-3.08555 -0.53432,-0.1593 -0.57735,-0.0609 -0.2965,0.67777 0.18069,0.47526 0.82412,2.91562 1.42983,5.42301 0.60571,2.50739 1.19774,4.79702 1.31562,5.08807 0.11788,0.29104 0.25409,0.76729 0.30269,1.05833 0.30823,1.84563 0.62534,3.55727 0.91501,4.93889 0.90889,4.33502 0.94551,15.54126 0.0706,21.607642 -0.17757,1.23118 -0.60524,1.72655 -0.87796,1.01695 -0.0647,-0.16829 -1.30822,-1.38263 -2.76342,-2.69853 -1.45521,-1.315912 -3.3112,-3.003852 -4.12442,-3.750982 -1.57582,-1.44775 -2.07328,-1.68411 -1.74523,-0.82925 0.11168,0.29104 0.0493,0.52917 -0.13865,0.52917 -0.18793,0 -0.3429,0.67469 -0.34437,1.49931 -0.001,0.82461 -0.17997,2.531182 -0.39668,3.792362 -0.2167,1.26118 -0.43159,2.53118 -0.47752,2.82222 -0.0459,0.29104 -0.17626,0.76729 -0.28963,1.05833 -0.30977,0.79524 -1.62888,5.41624 -1.66161,5.82083 -0.0157,0.19403 -0.26258,0.70997 -0.54863,1.14653 -0.28605,0.43657 -0.39736,0.79618 -0.24737,0.79915 0.15,0.003 0.11397,0.12204 -0.0801,0.26459 -0.57591,0.42311 -5.81649,10.90565 -5.57356,11.14858 0.1227,0.1227 0.0285,0.2231 -0.2093,0.2231 -0.23781,0 -0.33428,0.15875 -0.21436,0.35278 0.11991,0.19402 0.0405,0.35277 -0.17639,0.35277 -0.21693,0 -0.29631,0.15875 -0.17639,0.35278 0.11992,0.19403 0.0771,0.35278 -0.0953,0.35278 -0.17231,0 -0.69707,0.83344 -1.16613,1.85208 -0.46907,1.01865 -1.01214,2.02251 -1.20683,2.2308 -0.1947,0.20829 -0.67149,0.99962 -1.05955,1.75851 -0.38805,0.75888 -0.89359,1.58159 -1.12341,1.82823 -0.22983,0.24665 -0.51834,0.76501 -0.64114,1.15191 -0.1228,0.38691 -0.37132,0.70347 -0.55228,0.70347 -0.18095,0 -0.329,0.22114 -0.329,0.49142 0,0.27029 -0.23813,0.5828 -0.52917,0.69449 -0.29104,0.11168 -0.52916,0.44616 -0.52916,0.7433 0,0.29713 -0.13716,0.54023 -0.3048,0.54023 -0.16764,0 -0.75752,0.67469 -1.31083,1.49931 -0.55332,0.82462 -1.2496,1.76497 -1.54729,2.08967 -0.29769,0.3247 -1.09688,1.20464 -1.77597,1.95541 -3.39485,3.75315 -4.28816,4.65774 -6.36962,6.45006 -1.2393,1.06715 -2.57532,2.26637 -2.96892,2.66492 -0.3936,0.39856 -1.27125,1.10497 -1.95035,1.5698 -0.6791,0.46483 -1.36167,1.05155 -1.51684,1.30382 -0.15516,0.25228 -0.49568,0.45868 -0.75672,0.45868 -0.26103,0 -0.84846,0.39413 -1.30539,0.87585 -0.45692,0.48172 -0.95157,0.87859 -1.09922,0.88194 -0.14764,0.004 -1.522141,0.79182 -3.054451,1.75213 -2.84417,1.78248 -7.90055,4.44456 -10.43544,5.49404 -0.77611,0.32132 -1.84767,0.8171 -2.38125,1.10174 -0.53357,0.28464 -0.97013,0.42359 -0.97013,0.30878 0,-0.11481 -0.35719,-0.0123 -0.79375,0.22767 -0.43657,0.24003 -0.9525,0.47569 -1.14653,0.52369 -0.19403,0.048 -1.06715,0.35074 -1.94028,0.67276 -1.63786,0.60407 -6.07268,1.79311 -7.9375,2.12816 -0.58208,0.10458 -1.61396,0.33164 -2.29305,0.50456 -1.34618,0.3428 -2.33619,0.51015 -5.29167,0.89451 -1.06715,0.13878 -2.41653,0.31593 -2.99861,0.39367 -1.13214,0.1512 -12.46737,0.39794 -12.61305,0.27455 z m 16.14083,-5.45554 c 0.97013,-0.21539 2.31951,-0.46702 2.99861,-0.55918 3.49696,-0.47456 8.16478,-1.86074 15.33142,-4.5529 2.79782,-1.051 11.24329,-5.38246 11.42089,-5.85747 0.0647,-0.17299 0.24959,-0.31452 0.41092,-0.31452 0.48366,0 5.634971,-3.57474 8.467321,-5.87589 3.35825,-2.7284 8.59518,-7.93664 11.24987,-11.18823 3.30248,-4.04504 8.63856,-12.02111 8.42885,-12.599 -0.0547,-0.1509 -1.53137,1.10376 -3.28138,2.78813 -3.78047,3.6387 -10.20585,8.05025 -15.33901,10.5315 -4.76483,2.30321 -5.858631,2.71245 -6.383211,2.38824 -0.25467,-0.15739 -0.33744,-0.1174 -0.20398,0.0985 0.13635,0.2206 -1.33246,0.80672 -3.73785,1.49155 -4.77124,1.35841 -5.53989,1.62552 -7.94416,2.76065 -1.83855,0.86804 -1.88458,0.87173 -3.24135,0.25991 -0.88305,-0.3982 -1.71836,-0.53478 -2.3307,-0.38109 -1.11098,0.27884 -12.37029,0.32135 -13.60143,0.0514 -0.45854,-0.10056 -1.46611,-0.27188 -2.23905,-0.38071 -1.25322,-0.17645 -6.98437,-1.34905 -8.82521,-1.80564 -0.38805,-0.0963 -0.8994,-0.21405 -1.13631,-0.26177 -0.23692,-0.0477 -0.54119,-0.19718 -0.67616,-0.33215 -0.13497,-0.13497 -0.58406,-0.2454 -0.99799,-0.2454 -0.41392,0 -0.9068,-0.1542 -1.09528,-0.34268 -0.18847,-0.18848 -0.65678,-0.3957 -1.04069,-0.46051 -0.3839,-0.0648 -1.21228,-0.39006 -1.84084,-0.72279 -0.62856,-0.33274 -1.18418,-0.57488 -1.23472,-0.5381 -0.34429,0.25057 -11.09422,-5.52078 -11.90995,-6.39413 -0.43961,-0.47067 -4.22916,-3.18345 -4.44704,-3.18345 -0.54391,0 -9.3256,-9.20601 -11.53109,-12.08826 -1.30147,-1.70084 -2.36631,-3.16223 -2.36631,-3.24753 0,-0.0853 -0.38774,-0.72647 -0.86165,-1.42481 -1.20529,-1.77609 -4.52779,-8.3633 -5.60315,-11.10884 -1.03281,-2.63688 -2.80625,-8.038035 -2.89583,-8.819455 -0.0334,-0.29104 -0.23774,-1.16417 -0.45415,-1.94028 -0.57069,-2.04658 -0.76441,-3.4754 -1.24878,-9.21048 -0.42509,-5.03305 -0.3743,-6.32895 0.63446,-16.18952 0.0596,-0.58208 0.29071,-1.72286 0.5137,-2.53507 0.223,-0.81221 0.37686,-1.60596 0.34191,-1.76389 -0.0349,-0.15793 0.0327,-0.52527 0.15031,-0.81631 0.19507,-0.48273 1.32032,-4.29619 1.32612,-4.49422 0.01,-0.33701 2.00364,-5.55165 2.80021,-7.32384 0.43606,-0.97014 1.03596,-2.31951 1.3331,-2.99861 0.29715,-0.6791 0.6534,-1.3141 0.79168,-1.41111 0.13827,-0.097 0.53481,-0.73202 0.88121,-1.41111 1.00218,-1.96475 5.0121,-7.76068 6.81457,-9.849766 0.90744,-1.051745 2.70123,-2.938499 3.98618,-4.192788 l 2.33628,-2.280525 -1.2396,-2.682949 c -1.32296,-2.863375 -2.85807,-7.058372 -3.11557,-8.513915 -0.0861,-0.48687 -0.27215,-1.301969 -0.41339,-1.811331 l -0.25678,-0.926112 -4.58611,2.24907 c -2.52236,1.236988 -4.89796,2.448962 -5.27911,2.693275 -0.38115,0.244313 -1.73053,1.074308 -2.99861,1.844433 -1.26809,0.770125 -2.51539,1.603563 -2.77178,1.852083 -0.2564,0.248521 -0.58365,0.451856 -0.72723,0.451856 -0.14358,0 -0.64446,0.357188 -1.11305,0.79375 -0.4686,0.436563 -0.95076,0.79375 -1.07148,0.79375 -1.07947,0 -14.31997,13.240399 -15.64189,15.641769 -0.17742,0.3223 -1.0046,1.47862 -1.83816,2.5696 -0.83357,1.09098 -1.41601,2.08316 -1.29431,2.20486 0.1217,0.1217 0.0502,0.22127 -0.15883,0.22127 -0.20906,0 -0.74051,0.75406 -1.181,1.6757 -0.44049,0.92163 -0.90063,1.75506 -1.02253,1.85208 -0.58778,0.46777 -4.54176,8.5328 -4.7314,9.65074 -0.0376,0.22188 -0.24336,0.72092 -0.45715,1.10898 -0.21378,0.38806 -0.44427,1.02306 -0.5122,1.41111 -0.0679,0.38806 -0.25069,0.79933 -0.40615,0.91394 -0.15546,0.11461 -0.32415,0.59757 -0.37487,1.07325 -0.0507,0.47568 -0.2107,1.0566 -0.35552,1.29093 -0.14482,0.23433 -0.1652,0.5848 -0.0453,0.77883 0.11992,0.19402 0.0499,0.35277 -0.15557,0.35277 -0.20548,0 -0.34839,0.11907 -0.31759,0.26459 0.0308,0.14552 -0.0418,0.5027 -0.16142,0.79375 -0.28013,0.68174 -1.34293,4.90071 -1.46633,5.82083 -0.052,0.38806 -0.19008,1.10243 -0.30674,1.5875 -0.11666,0.48507 -0.29853,1.59632 -0.40415,2.46944 -0.10563,0.87313 -0.34118,2.46063 -0.52346,3.52778 -0.4581,2.68196 -0.19746,16.99378 0.35335,19.402785 0.43878,1.91898 0.58584,2.9353 0.65386,4.51874 0.0192,0.44801 0.15406,0.74214 0.29958,0.65363 0.14552,-0.0885 0.28869,0.46239 0.31816,1.22424 0.0295,0.76185 0.22653,1.59357 0.43791,1.84827 0.21139,0.2547 0.30095,0.54648 0.19903,0.64839 -0.10191,0.10192 0.45872,2.15106 1.24585,4.55366 3.23804,9.88364 10.20961,21.6681 17.08891,28.8864 7.97479,8.36777 15.41955,13.7587 25.42472,18.41067 5.37965,2.5013 8.83322,3.66449 16.05139,5.40623 3.21021,0.77462 4.508,0.98782 8.81944,1.44883 1.06715,0.11411 2.0161,0.28005 2.10877,0.36876 0.33105,0.3169 16.44626,-0.20806 18.17595,-0.59209 z m 7.46417,-26.54879 c -2.74293,-1.69583 -7.85809,-5.34415 -9.88346,-7.04925 -3.54996,-2.98862 -9.70927,-9.33033 -13.02329,-13.40896 l -1.6516,-2.03266 -0.25887,0.97432 c -0.14238,0.53588 -0.27865,1.05371 -0.30283,1.15072 -0.0242,0.097 -0.14571,0.41451 -0.2701,0.70556 -0.58371,1.36582 -3.13345,8.69183 -3.1562,9.0685 -0.0427,0.70695 -0.44205,0.23814 -1.85444,-2.17694 -0.74155,-1.268 -1.48011,-2.30545 -1.64125,-2.30545 -0.16113,0 -0.29296,-0.1449 -0.29296,-0.32199 0,-0.17709 -0.5608,-1.16928 -1.24623,-2.20486 -2.16237,-3.26703 -6.61049,-12.38102 -7.0742,-14.49468 -0.0319,-0.14552 -0.09,-0.30427 -0.12913,-0.35278 -0.30569,-0.37924 -1.35608,-5.83273 -1.57979,-8.20208 -0.23646,-2.504255 -0.57152,-4.762505 -0.70663,-4.762505 -0.0408,0 -0.94893,0.83343 -2.01812,1.85208 -4.51076,4.297495 -7.12329,6.610355 -7.2846,6.449035 -0.0947,-0.0947 -0.22918,-1.16774 -0.29885,-2.38455 -0.0697,-1.21682 -0.23153,-3.244275 -0.35966,-4.505455 -0.41296,-4.06471 -0.1832,-10.22683 0.55247,-14.81667 0.20214,-1.26118 0.44877,-2.84868 0.54807,-3.52778 0.0993,-0.67909 0.75934,-3.53659 1.46678,-6.34999 0.70744,-2.81341 1.32341,-5.35341 1.36881,-5.64445 0.0454,-0.29104 0.18398,-0.80698 0.30793,-1.14653 0.59904,-1.64097 0.59639,-1.76316 -0.034,-1.56496 -0.34243,0.10766 -2.75513,0.91792 -5.36154,1.80056 -2.60642,0.88265 -4.80339,1.54036 -4.88215,1.4616 -0.22249,-0.22249 0.90569,-5.4075 1.73176,-7.959 0.9954,-3.07457 5.78991,-12.95945 6.67325,-13.75833 0.10728,-0.097 0.65645,-0.81139 1.22039,-1.5875 0.56394,-0.77612 1.86523,-2.38801 2.89176,-3.582 1.02654,-1.19398 1.86643,-2.232979 1.86643,-2.308879 0,-0.0759 0.7814,-0.983512 1.73644,-2.016926 1.11929,-1.211135 1.66151,-2.074201 1.52561,-2.428343 -0.35191,-0.917083 -5.68046,5.151358 -9.49075,10.808598 -1.00043,1.48537 -1.74513,2.82016 -1.65487,2.96619 0.0902,0.14604 -0.002,0.26552 -0.20628,0.26552 -0.2037,0 -1.1493,1.62719 -2.10133,3.61597 -1.81056,3.78225 -3.70372,8.73125 -3.33999,8.73125 0.1166,0 0.0374,0.21034 -0.17592,0.46742 -0.46653,0.56213 -1.93767,6.58319 -1.67313,6.84773 0.10227,0.10228 0.0473,0.44507 -0.12221,0.76176 -0.79308,1.48189 -1.16492,12.57281 -0.60444,18.02865 1.08795,10.59031 5.59504,21.823115 12.38178,30.858545 9.67896,12.88594 24.49615,21.85188 40.26295,24.36326 2.65988,0.42368 3.34283,0.50388 6.14824,0.72207 1.64924,0.12826 3.06476,0.29336 3.1456,0.36689 0.0808,0.0735 0.39835,0.13049 0.70556,0.12659 0.30721,-0.004 -0.52756,-0.67858 -1.85504,-1.4993 z m 13.5261,0.21154 c 1.35943,-0.15582 4.38382,-1.51485 4.93889,-2.21933 0.097,-0.12312 0.97014,-0.67829 1.94028,-1.2337 2.23878,-1.28172 9.174121,-6.38916 12.170831,-8.96305 4.25627,-3.65573 9.33012,-9.019 12.66241,-13.38472 1.82259,-2.38781 3.42171,-4.21344 3.5536,-4.05694 0.39883,0.47322 2.83399,6.04787 2.83399,6.48766 0,0.29791 0.14435,0.28986 0.52917,-0.0295 0.29104,-0.24155 0.52916,-0.64463 0.52916,-0.89575 0,-0.25111 0.13008,-0.50948 0.28906,-0.57416 0.40887,-0.16634 2.98528,-4.04648 3.94311,-5.93843 0.44204,-0.87312 1.09971,-1.96652 1.46151,-2.42976 1.68546,-2.1581 2.75867,-8.513565 2.76683,-16.385055 0.004,-3.26614 0.14312,-5.88551 0.31052,-5.82083 0.85176,0.32908 5.17613,4.14152 9.4502,8.33143 0.71775,0.70362 1.18155,0.96063 1.18155,0.65474 0,-0.49945 -0.54389,-6.34834 -0.8739,-9.39775 -0.27222,-2.51546 -1.24844,-8.93029 -1.46958,-9.65682 -0.23012,-0.75599 -0.26987,-0.93806 -0.62597,-2.86679 -0.14328,-0.77611 -0.3535,-1.64924 -0.46715,-1.94028 -0.26141,-0.66944 -0.25457,-0.64459 -0.58222,-2.11666 -0.59839,-2.68844 -3.10922,-8.33615 -5.46905,-12.30178 -0.62016,-1.04215 -1.08065,-1.93748 -1.02332,-1.9896 0.0573,-0.0521 1.29487,0.36818 2.75008,0.93401 1.45521,0.56583 2.88396,1.07971 3.175,1.14193 0.29104,0.0622 1.00542,0.31027 1.5875,0.5512 0.58208,0.24093 2.01083,0.79856 3.175,1.23918 1.16417,0.44062 2.42521,0.93154 2.80233,1.09093 0.66327,0.28034 0.66188,0.25028 -0.0425,-0.92067 -0.40049,-0.66577 -1.5747,-2.87736 -2.60936,-4.91465 -2.65777,-5.23326 -8.42301,-13.81625 -10.90232,-16.230835 -0.10134,-0.09869 -0.55376,-0.598286 -1.00538,-1.110202 l -0.82112,-0.930758 1.45219,-3.12313 c 0.79871,-1.717721 1.60875,-3.405158 1.8001,-3.74986 0.19135,-0.344702 0.67972,-1.455952 1.08528,-2.469444 2.89384,-7.231846 4.53543,-13.276092 4.53616,-16.7019309 l 3.5e-4,-2.159218 -2.95559,0.78889 c -1.62557,0.43389 -3.13631,0.900589 -3.3572,1.037107 -0.2209,0.136519 -0.83219,0.326293 -1.35843,0.421719 -0.52624,0.09543 -1.07682,0.362251 -1.2235,0.5929439 -0.14668,0.230694 -0.26913,0.302793 -0.2721,0.160221 -0.003,-0.142571 -0.93785,0.214616 -2.07751,0.79375 -1.13956,0.579117 -2.23758,1.052954 -2.43995,1.052954 -0.20236,0 -0.42085,0.119063 -0.48552,0.264584 -0.0647,0.14552 -0.7397,0.582083 -1.50004,0.970138 -2.40545,1.227663 -2.6745,1.395776 -2.6745,1.671154 0,0.148018 -0.23813,0.269124 -0.52917,0.269124 -0.29104,0 -0.52916,0.168119 -0.52916,0.373598 0,0.205478 -0.149,0.281515 -0.3311,0.168969 -0.1821,-0.112546 -0.49477,0.07652 -0.69483,0.420152 -0.20005,0.34363 -0.36856,0.49764 -0.37446,0.342245 -0.006,-0.155396 -0.566,0.140991 -1.24467,0.658636 -0.80918,0.617199 -1.50743,0.879559 -2.02847,0.76218 -0.973,-0.219199 -5.82069,-1.917741 -6.79175,-2.379704 -0.38806,-0.184611 -2.65184,-0.963368 -5.03064,-1.730571 -4.93869,-1.592818 -10.271031,-2.716657 -14.372141,-3.029063 -1.55222,-0.118242 -3.37785,-0.290778 -4.05694,-0.383413 -0.6791,-0.09264 -2.70316,-0.0037 -4.49792,0.197605 -1.79476,0.201318 -4.76378,0.535311 -6.59783,0.742207 -4.34474,0.490122 -10.07125,2.017378 -14.48064,3.861976 -1.94028,0.811684 -4.31808,1.777213 -5.28401,2.14562 -0.96593,0.368407 -2.47405,1.145503 -3.35139,1.72688 -0.87733,0.581376 -3.04952,1.769417 -4.82708,2.640089 -2.74594,1.345002 -3.20391,1.690146 -3.04566,2.295318 0.10245,0.391751 0.0348,0.712276 -0.15039,0.712276 -0.47635,0 -5.39008,4.79543 -5.39008,5.260311 0,0.794187 -1.06123,0.343489 -1.5875,-0.6742 -0.6558,-1.268192 -0.78172,-1.279499 -2.02847,-0.182162 -1.19222,1.049343 -1.22205,1.983378 -0.1232,3.858411 0.46581,0.794851 0.90237,1.705474 0.97014,2.023606 0.0692,0.324739 -0.62229,1.367744 -1.5766,2.37817 -0.93489,0.989862 -1.59958,1.799757 -1.47709,1.799757 0.12249,0 -0.34153,0.59531 -1.03117,1.32291 -0.68963,0.72761 -1.25525,1.4338 -1.25694,1.56933 -0.002,0.13552 -0.39993,0.67464 -0.885,1.19804 -0.48507,0.5234 -0.88194,1.16658 -0.88194,1.42928 0,0.26271 -0.14067,0.47766 -0.31259,0.47766 -0.17191,0 -0.57318,0.51593 -0.89169,1.14653 -0.73944,1.46393 -1.32664,2.40247 -1.88253,3.00891 -0.24253,0.26458 -0.44097,0.70785 -0.44097,0.98503 0,0.27718 -0.12603,0.50397 -0.28006,0.50397 -0.15404,0 -0.89553,1.30969 -1.64775,2.91042 -0.75223,1.60073 -1.73745,3.4632 -2.18938,4.13883 -1.30359,1.94884 -1.1199,1.9956 2.17161,0.55285 0.585,-0.25642 2.09551,-0.82764 3.35669,-1.26939 1.26118,-0.44175 2.49149,-0.95551 2.73403,-1.1417 0.24253,-0.18618 0.44097,-0.24106 0.44097,-0.12196 0,0.11911 1.03187,-0.17184 2.29306,-0.64655 2.21439,-0.8335 2.81007,-0.75658 1.81867,0.23482 -0.89921,0.89921 -4.65224,7.6899 -4.25,7.6899 0.12356,0 0.027,0.23813 -0.21451,0.52917 -0.24154,0.29104 -0.3367,0.52917 -0.21145,0.52917 0.12524,0 -0.01,0.36253 -0.30015,0.80562 -0.29033,0.44309 -0.58764,1.11778 -0.66069,1.49931 -0.073,0.38152 -0.2342,0.9318 -0.3581,1.22284 -0.12391,0.29105 -0.28266,0.84667 -0.35278,1.23473 -0.0701,0.38805 -0.22525,0.94368 -0.34472,1.23472 -0.30136,0.73411 -1.972,9.19336 -1.98602,10.05609 -0.006,0.387 -0.15835,1.73551 -0.33793,2.99669 -0.4023,2.82543 -0.6857,5.27359 -0.87801,7.58472 -0.0807,0.97014 -0.24311,2.39889 -0.36086,3.175 -0.11775,0.77611 -0.0933,1.17298 0.0543,0.88194 0.14761,-0.29104 0.45684,-0.52916 0.68718,-0.52916 0.23035,0 2.01689,-1.54719 3.9701,-3.4382 1.95321,-1.891 3.59418,-3.39913 3.64661,-3.35139 0.0524,0.0477 0.56614,-0.34975 1.14157,-0.88333 0.57545,-0.53358 1.1315,-0.97014 1.23569,-0.97014 0.10419,0 0.23685,3.05594 0.29481,6.79097 0.058,3.73504 0.23974,6.92938 0.40396,7.09855 0.16423,0.169165 0.22659,0.495215 0.13858,0.724555 -0.1688,0.43989 0.75772,4.46585 1.91392,8.31649 0.89843,2.99209 4.5778,12.0386 5.11468,12.57548 0.12402,0.12403 0.322,-0.075 0.43995,-0.44235 0.21958,-0.68383 1.30615,-3.05237 3.34915,-7.30064 0.91769,-1.90829 1.23971,-2.30547 1.57313,-1.94028 0.23058,0.25255 2.02011,2.53252 3.97673,5.06661 4.66468,6.04137 13.23998,14.20178 18.61451,17.71388 0.37799,0.247 1.19279,0.77249 1.81068,1.16775 0.61789,0.39526 2.99914,1.97501 5.29167,3.51057 3.71588,2.48892 4.30222,2.77079 5.40295,2.59733 0.6791,-0.10702 1.9491,-0.27646 2.82222,-0.37654 z m -8.92397,-13.34419 c -1.6408,-0.41662 -3.11979,-1.37988 -5.01075,-3.26349 -5.87731,-5.85446 -11.46528,-11.71731 -11.46528,-12.02928 0,-0.21209 -0.33424,-0.98071 -0.74276,-1.70804 -0.58657,-1.04435 -0.69511,-1.65859 -0.51617,-2.92114 0.12462,-0.8793 0.24719,-1.83496 0.27239,-2.1237 0.0252,-0.28873 0.2666,-0.74576 0.53646,-1.01562 0.26986,-0.26986 0.41107,-0.69806 0.3138,-0.95155 -0.0973,-0.25349 -0.0667,-0.51083 0.0679,-0.57187 0.13462,-0.061 1.31628,-2.21186 2.62591,-4.779605 2.68244,-5.25936 4.07742,-9.57737 4.35773,-13.48889 0.18559,-2.58985 0.17426,-2.63846 -0.45204,-1.94069 -1.39137,1.55012 -5.74763,2.964 -9.81462,3.18545 l -2.82221,0.15368 2.82221,-1.01261 c 1.55223,-0.55693 3.33394,-1.28035 3.95938,-1.6076 1.47021,-0.76927 3.49381,-3.14212 4.00779,-4.69951 0.57234,-1.73421 -0.3091,-2.79202 -3.22061,-3.86506 -3.15274,-1.16194 -5.06884,-2.07317 -5.52876,-2.6293 -0.21438,-0.25922 -1.02588,-2.0588 -1.80334,-3.99908 -2.52996,-6.31395 -3.14668,-7.5095 -4.01163,-7.77684 -0.44614,-0.13789 -2.45667,-1.0351 -4.46784,-1.99379 -2.01118,-0.95869 -4.04164,-1.88943 -4.51212,-2.0683 -0.72425,-0.27536 -0.79725,-0.43393 -0.47604,-1.03413 0.20867,-0.38989 0.28309,-0.70889 0.16539,-0.70889 -0.1177,0 0.0355,-0.24946 0.34037,-0.55436 0.3049,-0.3049 0.55436,-0.75797 0.55436,-1.00682 0,-0.5115 0.89381,-1.58082 3.80552,-4.5528 2.15671,-2.20135 4.66115,-4.32237 4.66115,-3.94755 0,0.12557 -1.20049,2.05402 -2.66775,4.28543 -1.46726,2.23141 -2.61262,4.2225 -2.54524,4.42463 0.10048,0.30146 4.99005,3.15014 6.97688,4.06476 0.29104,0.13398 1.1483,0.68955 1.90501,1.2346 0.75672,0.54505 1.50074,0.991 1.65339,0.991 0.15265,0 1.321,0.71438 2.59634,1.5875 1.27533,0.87313 2.44861,1.5875 2.60729,1.5875 0.35509,0 3.74238,3.54746 5.22116,5.46806 1.02214,1.32753 1.72028,2.93918 2.08959,4.82381 0.0884,0.45135 0.38605,1.85251 0.66135,3.11369 0.54202,2.48304 0.67537,12.46748 0.1793,13.42512 -0.15633,0.3018 -0.35276,1.17492 -0.43651,1.94028 -0.0837,0.76535 -0.24138,1.62967 -0.3503,1.92071 -0.27286,0.72909 -1.00657,3.12527 -1.11367,3.63702 -0.0483,0.23096 -0.26657,0.85511 -0.48496,1.387 -0.2184,0.53189 -0.30518,1.206585 -0.19286,1.499315 0.11233,0.29272 0.0411,0.53223 -0.15825,0.53223 -0.29489,0 -0.83934,1.4836 -0.9278,2.52824 -0.0109,0.12935 -0.13898,0.35424 -0.2845,0.49976 -0.14552,0.14552 -0.26556,0.59532 -0.26676,0.99954 -0.001,0.40423 -0.22664,1.16523 -0.50099,1.69111 -0.63671,1.22047 -0.49427,3.02182 0.34416,4.3525 0.88784,1.40909 4.95733,6.42812 6.30299,7.77365 1.8009,1.80074 5.74958,5.01547 6.87609,5.598 1.0762,0.55653 3.92241,0.76186 3.90204,0.2815 -0.0286,-0.67528 -1.0924,-1.56868 -2.24762,-1.88765 -0.96262,-0.2658 -1.44426,-0.68898 -1.98054,-1.74016 -0.77327,-1.51574 -1.6022,-2.16209 -3.57348,-2.7864 -1.95757,-0.61996 -2.68474,-2.92211 -1.69113,-5.3539 0.54102,-1.32408 3.02341,-2.3107 7.51083,-2.98515 4.04468,-0.60792 6.43951,-0.51708 10.39582,0.39431 4.05791,0.93479 5.3609,1.9993 5.34445,4.36628 -0.006,0.88781 -0.20515,1.86881 -0.44217,2.18 -0.53112,0.69734 -3.26492,2.12469 -3.54086,1.84874 -0.30765,-0.30765 -1.64738,2.07104 -1.64888,2.92758 -10e-4,0.77411 -0.61397,1.18427 -1.76886,1.18427 -0.86531,0 -1.76023,0.93252 -1.76023,1.83417 0,0.65485 0.14591,0.70276 1.4993,0.49233 0.82462,-0.12821 2.30919,-0.78661 3.29904,-1.4631 4.3056,-2.94257 11.864761,-11.58783 12.338071,-14.11079 0.15892,-0.84708 -0.18704,-2.45869 -1.25936,-5.86652 -3.718681,-11.818065 -4.140521,-13.921455 -4.041941,-20.153815 0.044,-2.78301 0.31684,-5.78737 0.6788,-7.47534 0.33286,-1.55222 0.646691,-3.06035 0.697421,-3.35139 0.21962,-1.26021 0.6417,-2.46944 0.86196,-2.46944 0.13116,0 0.50253,-0.43656 0.82526,-0.97014 0.32273,-0.53358 1.42852,-1.86437 2.45731,-2.95733 2.35272,-2.49946 5.72888,-4.76737 14.39299,-9.66838 2.42471,-1.37158 4.45717,-2.74615 4.51657,-3.05459 0.0594,-0.30845 -0.94816,-2.19359 -2.23903,-4.18921 -1.29087,-1.99562 -2.44269,-3.87777 -2.5596,-4.18257 -0.35919,-0.93644 4.50964,3.33455 6.53613,5.73357 0.8443,0.9995 2.9193,4.92323 2.9193,5.52025 0,0.19957 -0.25898,0.36284 -0.5755,0.36284 -0.31652,0 -1.78496,0.61972 -3.26319,1.37714 -1.47824,0.75743 -3.6792,1.82899 -4.89102,2.38125 -1.32343,0.60312 -2.2933,1.28588 -2.42862,1.70967 -0.22374,0.70072 -2.57333,6.39123 -3.51787,8.51998 -0.27128,0.61141 -0.49325,1.20672 -0.49325,1.32292 0,0.21444 -1.33747,1.64139 -1.4993,1.5996 -0.13056,-0.0337 -1.23659,0.35712 -3.67614,1.299 -1.19726,0.46224 -2.29031,0.84044 -2.42899,0.84044 -0.13869,0 -0.63359,0.41157 -1.09977,0.91459 -0.8981,0.96907 -0.87565,1.45993 0.15983,3.49513 0.68642,1.34915 2.4207,3.08707 3.78187,3.78981 0.58209,0.30052 2.24896,0.92013 3.70417,1.37691 2.51381,0.78906 2.57981,0.83597 1.32271,0.94001 -1.85882,0.15383 -7.15587,-0.8958 -8.87669,-1.75895 -0.79302,-0.39778 -1.79904,-1.05049 -2.2356,-1.45047 l -0.79375,-0.72724 v 1.47261 c 0,0.80993 0.13222,1.4726 0.29382,1.4726 0.1616,0 0.26809,0.34922 0.23665,0.77605 -0.0513,0.69566 0.1218,1.76451 0.73023,4.51023 0.35891,1.61966 2.01654,5.44627 3.91029,9.0268 2.13619,4.038915 3.27941,7.169275 3.27597,8.970265 -0.005,2.44091 -1.41476,4.372 -8.32186,11.39651 -6.006511,6.1086 -7.600981,7.465 -9.297321,7.90908 -0.29105,0.0762 -1.64739,0.15568 -3.01411,0.17665 -2.77943,0.0426 -4.04145,-0.61904 -4.04145,-2.11897 0,-0.47394 -0.15394,-0.72922 -0.36213,-0.60055 -0.19918,0.1231 -0.31824,0.46836 -0.26459,0.76724 0.28494,1.58732 -3.57394,2.53866 -6.88614,1.69766 z m -1.867,-12.65874 c 0.24,-1.27929 1.01524,-1.63 3.60313,-1.63 1.00113,0 1.18976,-0.12632 1.18522,-0.79375 -0.0111,-1.62652 -0.4134,-1.79265 -2.75212,-1.13644 -1.18117,0.33142 -2.41791,0.90129 -2.74831,1.26639 -0.33041,0.36509 -0.47733,0.6638 -0.32648,0.6638 0.15084,0 0.0933,0.21801 -0.1278,0.48446 -0.43241,0.52102 -0.17764,1.63221 0.37423,1.63221 0.18472,0 0.23774,0.15875 0.11782,0.35278 -0.11991,0.19403 -0.0676,0.35278 0.11631,0.35278 0.18389,0 0.43499,-0.5365 0.558,-1.19223 z m 8.32153,-2.3515 c 0,-0.89975 -0.95375,-1.74794 -1.96548,-1.74794 -0.74064,0 -0.85674,0.164 -0.85674,1.21019 0,0.9831 0.14893,1.23344 0.79375,1.33411 1.26016,0.19674 2.02847,-0.10489 2.02847,-0.79636 z m -17.28611,-39.142385 c -0.29104,-0.18809 -0.40743,-0.34441 -0.25864,-0.34738 0.41682,-0.008 -1.42223,-3.44482 -2.49276,-4.65804 -0.52402,-0.59387 -2.22277,-2.0383 -3.77499,-3.20984 -1.55222,-1.17153 -3.04743,-2.30268 -3.32269,-2.51365 -0.41931,-0.32138 -0.45849,-0.18335 -0.24159,0.85113 0.14239,0.6791 0.31802,1.6527 0.39029,2.16357 0.30192,2.13412 1.84858,4.79701 3.42926,5.90416 1.27518,0.89317 4.6223,2.1459 5.74195,2.14905 0.81144,0.002 0.93489,-0.0768 0.52917,-0.339 z m 37.591161,0.0329 c -0.10873,-0.17594 0.10074,-0.24184 0.4655,-0.14645 0.65431,0.1711 3.94136,-1.19671 4.99518,-2.07861 0.87539,-0.73258 2.10221,-2.63064 1.8581,-2.87475 -0.12362,-0.12362 -0.0649,-0.22476 0.13047,-0.22476 0.30422,0 0.76747,-1.61963 1.3874,-4.85069 0.0838,-0.43657 0.0753,-0.79375 -0.0188,-0.79375 -0.0941,0 -1.73471,1.17233 -3.64585,2.60518 -2.87032,2.15198 -3.72841,3.0265 -4.93272,5.02708 -2.05797,3.4187 -2.12187,3.65661 -0.98212,3.65661 0.51728,0 0.85155,-0.14394 0.74281,-0.31988 z m 23.16017,-46.183306 -3.23429,-3.366977 0.91834,-1.258671 c 1.98108,-2.715234 6.20548,-6.086931 10.03828,-8.012037 0.98047,-0.492463 1.85351,-0.824552 1.94008,-0.737977 0.47595,0.475951 -1.74662,7.447699 -3.77096,11.828711 -0.56436,1.221371 -1.02612,2.285884 -1.02612,2.365569 0,0.07969 -0.36698,0.685662 -0.81551,1.346614 l -0.81552,1.201731 -3.2343,-3.366977 z m -17.97703,104.636941 c 1.11566,-0.74955 2.02847,-1.52503 2.02847,-1.72328 0,-0.19825 0.15356,-0.26554 0.34124,-0.14955 0.18768,0.11599 0.54337,-0.11277 0.79042,-0.50835 0.24704,-0.39558 0.64911,-0.71924 0.89348,-0.71924 0.24437,0 0.44431,-0.12453 0.44431,-0.27672 0,-0.15219 0.43656,-0.54008 0.97014,-0.86196 0.53357,-0.32189 2.3132,-1.85039 3.95473,-3.39668 2.8258,-2.66185 2.97974,-2.88342 2.89347,-4.16443 -0.10502,-1.55945 -0.6235,-2.30422 -0.97196,-1.39616 -0.12777,0.33295 -0.64891,1.05344 -1.15809,1.60108 -0.50919,0.54764 -1.79425,2.00833 -2.8557,3.24598 -1.91906,2.23763 -7.04157,7.34828 -9.25722,9.23578 -1.43688,1.22408 -0.73198,0.89976 1.92671,-0.88647 z M -166.11717,25.113455 c 0.91527,-0.748079 0.99122,-0.947566 0.63317,-1.663008 -1.41358,-2.824551 -2.98921,-7.775373 -2.70788,-8.508515 0.18344,-0.478044 0.34716,-0.479109 1.50222,-0.0098 2.83915,1.153627 6.29096,3.045599 7.29357,3.997669 l 1.05833,1.004993 3.4261,-1.647279 c 1.88435,-0.906003 3.43216,-1.771323 3.43958,-1.922933 0.007,-0.15161 -0.25649,-0.379254 -0.58646,-0.505875 -0.32997,-0.126622 -1.56076,-0.813935 -2.73508,-1.527363 -2.30533,-1.400535 -6.43234,-3.543209 -6.70861,-3.482993 -0.0935,0.02037 -1.3247,0.345442 -2.73607,0.722376 -1.41137,0.376935 -3.00641,0.751891 -3.54453,0.833236 -0.53812,0.08135 -1.17312,0.269571 -1.41111,0.418278 -0.23799,0.148708 -0.64354,0.302302 -0.90123,0.341321 -1.31277,0.198778 -1.52883,0.473405 -1.27791,1.624301 0.43781,2.00811 2.61057,8.518563 3.17891,9.52529 0.30123,0.533577 0.44997,0.970139 0.33054,0.970139 -0.11944,0 -0.11905,0.15875 7e-4,0.352778 0.31465,0.509108 0.5807,0.429447 1.74559,-0.522642 z m 26.14999,-15.6159429 c -0.11407,-0.119927 -0.97087,-0.130147 -7.25808,-0.08658 l -5.46806,0.03789 1.38703,0.8428849 c 0.76287,0.463587 1.55662,0.746522 1.76389,0.628743 0.20727,-0.117778 0.25153,-0.07659 0.0983,0.09154 -0.15318,0.168124 0.24369,0.552714 0.88195,0.854644 1.1212,0.530393 1.28762,0.501079 4.91917,-0.866481 2.06729,-0.778494 3.72138,-1.4546839 3.67576,-1.5026409 z m -29.51248,-1.355377 c 0.27056,-0.266762 -0.13744,-0.431365 -1.37123,-0.5532 -0.97166,-0.09595 -1.25176,0.01593 -1.3576,0.542236 -0.11867,0.590098 0.0162,0.635197 1.22424,0.40951 0.74668,-0.139491 1.42375,-0.318836 1.50459,-0.398546 z"
       id="path179" /></g></svg>
