<?xml version="1.0" encoding="UTF-8" standalone="no"?>
<!-- Created with Inkscape (http://www.inkscape.org/) -->

<svg
   width="254.11327mm"
   height="90.376564mm"
   viewBox="0 0 254.11327 90.376564"
   version="1.1"
   id="svg5"
   xml:space="preserve"
   inkscape:export-filename="bitmap.png"
   inkscape:export-xdpi="96"
   inkscape:export-ydpi="96"
   xmlns:inkscape="http://www.inkscape.org/namespaces/inkscape"
   xmlns:sodipodi="http://sodipodi.sourceforge.net/DTD/sodipodi-0.dtd"
   xmlns="http://www.w3.org/2000/svg"
   xmlns:svg="http://www.w3.org/2000/svg"><sodipodi:namedview
     id="namedview7"
     pagecolor="#ffffff"
     bordercolor="#000000"
     borderopacity="0.25"
     inkscape:showpageshadow="2"
     inkscape:pageopacity="0.0"
     inkscape:pagecheckerboard="0"
     inkscape:deskcolor="#d1d1d1"
     inkscape:document-units="mm"
     showgrid="false" /><defs
     id="defs2" /><g
     inkscape:label="Capa 1"
     inkscape:groupmode="layer"
     id="layer1"
     transform="translate(308.92698,-71.612844)"><path
       style="fill:#000000;stroke-width:0.0846667"
       d="m -111.79437,161.95002 c -1.4051,-0.11276 -2.72917,-0.62702 -3.46853,-1.34719 -0.68282,-0.66508 -0.69078,-0.60847 0.2238,-1.59231 0.44264,-0.47616 0.83183,-0.86575 0.86486,-0.86575 0.033,0 0.27965,0.21269 0.54804,0.47264 0.28896,0.27989 0.71886,0.58203 1.05408,0.74084 0.52891,0.25058 0.62724,0.26819 1.49742,0.26819 0.8197,0 0.9682,-0.0229 1.23887,-0.19125 0.37461,-0.23296 0.53413,-0.58558 0.47257,-1.04459 -0.0866,-0.64549 -0.45293,-0.86318 -2.12535,-1.26285 -1.76645,-0.42216 -2.5768,-0.80063 -3.17547,-1.4831 -0.5212,-0.59414 -0.64395,-0.98101 -0.64395,-2.02955 0,-1.11516 0.13603,-1.48678 0.80201,-2.19096 0.85206,-0.90092 2.10905,-1.29314 3.88976,-1.21371 1.52653,0.0681 2.50124,0.41226 3.35399,1.18432 l 0.41437,0.37516 -0.79466,0.8591 c -0.43707,0.4725 -0.81018,0.85909 -0.82916,0.85909 -0.019,0 -0.19329,-0.12875 -0.3874,-0.28612 -0.90594,-0.73449 -2.07586,-0.97059 -3.15563,-0.63683 -0.85039,0.26285 -0.92321,1.39571 -0.11654,1.81286 0.14478,0.0749 0.83127,0.26653 1.52553,0.42592 1.96547,0.45123 2.59529,0.71615 3.24333,1.36422 0.54822,0.54824 0.81539,1.26526 0.81539,2.18829 0,0.95355 -0.27854,1.66908 -0.91431,2.34877 -0.6546,0.69983 -1.56686,1.11981 -2.62764,1.20971 -0.3093,0.0262 -0.65763,0.0578 -0.77404,0.0702 -0.11642,0.0124 -0.53552,-0.003 -0.93134,-0.0351 z m 39.793334,-0.007 c -1.576662,-0.13424 -2.61338,-0.9935 -3.002881,-2.4889 -0.105376,-0.40457 -0.129785,-1.09211 -0.129785,-3.65549 v -3.15722 h -0.889 -0.889 v -1.143 -1.143 h 0.889 0.889 v -1.1007 c 0,-0.60537 0.0095,-1.10104 0.02117,-1.10149 0.01164,-4.2e-4 0.573617,-0.0953 1.248834,-0.21085 0.675216,-0.11552 1.294341,-0.2104 1.375833,-0.21085 0.134764,-7.6e-4 0.148167,0.11772 0.148167,1.30969 v 1.31051 l 1.629833,0.023 1.629833,0.023 0.02362,1.12183 0.02363,1.12183 h -1.658459 -1.658459 l 0.02616,2.94217 c 0.02459,2.76367 0.03644,2.95961 0.195503,3.22965 0.291762,0.49533 0.572051,0.64396 1.212706,0.64303 0.412784,-8.5e-4 0.669587,-0.052 0.951857,-0.1905 0.603224,-0.29599 0.512682,-0.39159 1.018201,1.07504 0.135433,0.39291 0.246236,0.75832 0.246236,0.81204 0,0.11264 -0.655557,0.48002 -1.123052,0.62936 -0.468613,0.1497 -1.454709,0.22247 -2.178948,0.16082 z m -58.758664,-6.46531 v -6.30766 h -2.159 -2.159 v -1.22767 -1.22767 h 5.842 5.842 v 1.22767 1.22767 h -2.159 -2.159 v 6.30766 6.30767 h -1.524 -1.524 z m 26.5214,-1.67216 0.0216,-7.97984 1.41817,-0.0232 1.41816,-0.0232 v 3.05005 c 0,2.3839 0.0231,3.04992 0.10584,3.04948 0.0582,-3.4e-4 0.32241,-0.22227 0.58711,-0.49325 0.81186,-0.83108 1.717267,-1.19952 2.947719,-1.19952 1.986356,0 3.21437,0.94737 3.602634,2.7793 0.09373,0.44226 0.120074,1.4619 0.121226,4.69254 l 0.0014,4.1275 h -1.391615 -1.391615 l -0.03217,-3.8735 c -0.02378,-2.86273 -0.06077,-3.96188 -0.141758,-4.21217 -0.527879,-1.63158 -3.299321,-1.42899 -4.060821,0.29684 -0.29361,0.66545 -0.34672,1.37397 -0.34738,4.63499 l -8.4e-4,3.15384 h -1.43977 -1.43976 l 0.0216,-7.97984 z m 13.377173,2.286 0.02176,-5.69384 1.418167,-0.0232 1.418166,-0.0232 v 5.71705 5.71705 h -1.439926 -1.439934 z m 6.180666,0 0.02176,-5.69384 1.372845,-0.0233 1.372853,-0.0232 0.02415,0.86304 c 0.01342,0.47952 0.06178,0.87469 0.108822,0.88926 0.04657,0.0144 0.198966,-0.16716 0.338666,-0.40352 0.308094,-0.52126 0.789356,-0.97139 1.262211,-1.18055 0.48299,-0.21366 1.347995,-0.2901 1.925642,-0.17018 0.811513,0.16847 0.796027,0.12534 0.535347,1.49097 -0.124113,0.65016 -0.26206,1.20462 -0.306553,1.23212 -0.04449,0.0275 -0.277774,-0.001 -0.518388,-0.0635 -1.293741,-0.33559 -2.394763,0.13043 -2.880038,1.21901 -0.330099,0.74051 -0.399221,1.55163 -0.399221,4.68497 v 2.87253 h -1.439925 -1.439935 z m -39.051909,-1.67217 v -1.27 h 3.13267 3.13267 v 1.27 1.27 h -3.13267 -3.13267 z m 33.624962,-5.50926 c -0.667097,-0.26718 -1.028293,-0.8153 -1.028293,-1.56041 0,-0.77925 0.385622,-1.34431 1.071998,-1.57084 0.467716,-0.15436 1.309065,-0.0682 1.656097,0.16958 1.075724,0.7371 0.948495,2.3592 -0.226924,2.89312 -0.368892,0.16756 -1.13648,0.20329 -1.472878,0.0686 z m -103.728952,-2.96456 c -2.54839,-0.28932 -5.48317,-0.82495 -7.15434,-1.30574 -2.03135,-0.58442 -4.30668,-1.49473 -6.477,-2.5913 -2.70206,-1.36524 -3.61013,-1.91725 -5.54134,-3.36854 -3.83849,-2.88459 -7.40441,-6.88326 -9.67217,-10.84598 -1.03063,-1.80094 -1.275,-2.27616 -1.65753,-3.22327 -0.21497,-0.53225 -0.54971,-1.34873 -0.74386,-1.81439 -1.15978,-2.78154 -2.14666,-7.0272 -2.4502,-10.541 -0.20902,-2.41953 0.0488,-7.06346 0.51871,-9.34469 0.0947,-0.45963 0.15407,-0.90484 0.13197,-0.98935 -0.0221,-0.0845 0.0135,-0.23034 0.0791,-0.32404 0.0656,-0.0937 0.1116,-0.27713 0.10216,-0.40764 -0.009,-0.13051 0.0239,-0.31348 0.0741,-0.40662 0.0502,-0.0931 0.22913,-0.67034 0.39768,-1.282666 0.16855,-0.61233 0.46324,-1.54578 0.65486,-2.07433 0.19163,-0.52856 0.38979,-1.16103 0.44034,-1.40551 0.0506,-0.24447 0.13782,-0.4445 0.19391,-0.4445 0.0561,0 0.1663,-0.20002 0.2449,-0.4445 0.15677,-0.48762 1.82499,-3.78288 2.32528,-4.59316 0.96024,-1.55523 1.28028,-2.05669 1.45637,-2.2819 0.10746,-0.13745 0.3404,-0.45652 0.51764,-0.70906 1.06895,-1.52303 3.59943,-4.22842 5.43508,-5.81074 1.29571,-1.11691 3.00045,-2.43001 3.66201,-2.82071 0.25804,-0.15239 0.64455,-0.40472 0.85891,-0.56073 0.58111,-0.42294 4.41116,-2.50615 4.60904,-2.50691 0.0543,-2.1e-4 0.46065,-0.17149 0.90303,-0.38062 0.44239,-0.20913 0.87101,-0.38041 0.9525,-0.38062 0.18559,-4.8e-4 0.19092,-0.4413 0.0266,-2.20171 -0.063,-0.67522 -0.0983,-1.24477 -0.0785,-1.26568 0.0199,-0.0209 0.67308,0.008 1.45156,0.0636 1.46904,0.10545 3.07848,0.38893 3.95544,0.69668 0.2794,0.0981 0.64452,0.2075 0.81137,0.24322 0.16684,0.0357 0.51905,0.15434 0.78267,0.2636 l 0.4793,0.19866 1.63033,-0.20587 c 1.44547,-0.18253 1.94714,-0.20524 4.42433,-0.20028 1.60027,0.003 3.06531,0.0462 3.429,0.10062 0.34925,0.0523 1.14935,0.17437 1.778,0.27134 1.81296,0.27966 2.71037,0.29906 4.36033,0.0943 1.94939,-0.24195 3.64451,-0.30335 5.08,-0.18401 2.46026,0.20453 5.76204,0.6155 6.2415,0.77688 0.26629,0.0896 0.56393,0.16296 0.66143,0.16296 0.27042,0 2.44479,0.72682 3.68041,1.23024 0.60536,0.24665 1.33173,0.52597 1.61416,0.62072 l 0.5135,0.17228 0.37843,-0.18612 c 0.20812,-0.10236 0.4533,-0.25584 0.54483,-0.34105 0.39531,-0.36804 3.4395,-1.95216 4.59936,-2.39338 0.6686,-0.25434 1.33535,-0.52619 1.48167,-0.6041 0.14633,-0.0779 0.31017,-0.13305 0.36411,-0.12253 0.054,0.0105 0.43495,-0.0553 0.84667,-0.1462 1.36738,-0.30201 4.51627,-0.56368 4.51627,-0.3753 0,0.43379 -0.36107,5.25975 -0.4234,5.65911 -0.0817,0.52318 -0.64426,2.383 -0.94764,3.13266 -0.0942,0.23284 -0.19178,0.51859 -0.2168,0.635 -0.025,0.11642 -0.0971,0.28682 -0.16015,0.37868 -0.0631,0.0918 -0.11468,0.25243 -0.11468,0.35685 0,0.10442 -0.0762,0.23063 -0.16933,0.28047 -0.0931,0.0498 -0.16934,0.13649 -0.16934,0.19254 0,0.056 -0.30984,0.75887 -0.68854,1.56182 l -0.68855,1.45993 0.24142,0.31902 c 0.13278,0.17547 0.58696,0.70003 1.0093,1.16569 0.42234,0.46567 0.8576,0.97451 0.96725,1.13076 0.10964,0.15624 0.3844,0.49555 0.61057,0.754 0.22617,0.25846 0.41122,0.51981 0.41122,0.58077 0,0.061 0.0763,0.15166 0.16944,0.20154 0.0932,0.0499 0.26243,0.27415 0.37606,0.4984 0.11363,0.22424 0.38674,0.67055 0.60691,0.99179 0.22017,0.32124 0.70451,1.17463 1.07633,1.89641 0.3718,0.72178 0.72247,1.36948 0.77924,1.43933 0.0568,0.0699 0.13043,0.2794 0.16366,0.46567 0.0332,0.18627 0.15338,0.52917 0.26699,0.762 0.18103,0.371 1.13337,3.93758 1.13337,4.24456 0,0.177286 -0.51012,0.142766 -0.98332,-0.0665 -0.6782,-0.3 -3.75722,-1.34298 -3.76804,-1.27638 -0.0129,0.0797 -0.0661,-0.1355 0.66329,2.686376 0.72054,2.78768 1.16147,4.99406 1.28937,6.45191 0.22455,2.55967 0.0101,7.92754 -0.3303,8.26796 -0.0578,0.0578 -0.17563,-0.0129 -0.36219,-0.21761 -0.24654,-0.27047 -1.59381,-1.52019 -2.97147,-2.75632 -0.27151,-0.24361 -0.52868,-0.44294 -0.5715,-0.44294 -0.0428,0 -0.0778,0.0876 -0.0778,0.19474 0,0.1071 -0.0347,0.23092 -0.077,0.27516 -0.0424,0.0442 -0.11991,0.53764 -0.17233,1.09644 -0.132,1.40728 -0.32988,2.37536 -0.84802,4.14866 -0.46082,1.57716 -0.47414,1.61244 -0.92638,2.45534 -0.69181,1.28941 -2.20959,4.41391 -2.20959,4.54867 0,0.0827 -0.0288,0.15033 -0.064,0.15033 -0.0352,0 -0.11695,0.12382 -0.18166,0.27516 -0.0647,0.15134 -0.16732,0.33317 -0.22802,0.40406 -0.0607,0.0709 -0.26942,0.43285 -0.46382,0.80434 -0.41468,0.79242 -1.10406,1.9729 -1.43276,2.45344 -0.12741,0.18626 -0.25841,0.42443 -0.2911,0.52925 -0.0327,0.10483 -0.13307,0.22999 -0.22304,0.27815 -0.09,0.0482 -0.1636,0.14361 -0.1636,0.21213 0,0.0685 -0.0953,0.2074 -0.21167,0.30863 -0.11642,0.10122 -0.21167,0.23278 -0.21167,0.29234 0,0.0596 -0.0929,0.19558 -0.20638,0.30224 -0.11351,0.10666 -0.46594,0.54187 -0.78317,0.96713 -1.24807,1.67311 -4.43788,4.84869 -6.11236,6.08511 -0.26167,0.19321 -0.52993,0.41733 -0.59616,0.49805 -0.0662,0.0807 -0.26854,0.21833 -0.44959,0.3058 -0.18105,0.0875 -0.46976,0.28012 -0.64159,0.4281 -0.33254,0.28639 -2.21265,1.41638 -3.61441,2.17236 -1.224,0.6601 -3.67554,1.81201 -4.02167,1.88966 -0.16298,0.0366 -0.58031,0.18583 -0.9274,0.33171 -0.75371,0.31677 -2.89317,0.94505 -3.8986,1.14487 -0.39582,0.0787 -1.02447,0.21964 -1.397,0.31326 -1.57578,0.39605 -3.54136,0.57982 -6.604,0.61744 -1.58327,0.0194 -3.20252,-0.001 -3.59833,-0.0463 z m 6.01133,-2.11589 c 2.33733,-0.1142 4.42338,-0.47784 6.604,-1.15123 1.1639,-0.35942 3.48808,-1.1964 4.17435,-1.50326 1.08139,-0.48353 3.60025,-1.77971 4.03832,-2.07806 0.25611,-0.17443 0.63924,-0.41506 0.85138,-0.53473 0.55462,-0.31285 2.63005,-1.8115 3.42428,-2.47264 2.81634,-2.34439 5.11405,-4.94467 7.26306,-8.21949 1.59767,-2.43465 1.57165,-2.49482 -0.33007,-0.76353 -2.25073,2.049 -4.72099,3.66914 -7.63314,5.00624 -0.83714,0.38436 -1.34606,0.57013 -1.56195,0.57013 -0.17613,0 -0.32023,0.0285 -0.32023,0.0633 0,0.0988 -0.78318,0.38938 -2.032,0.75395 -1.42066,0.41472 -2.13805,0.66662 -3.00567,1.05541 -0.77401,0.34685 -0.86249,0.35806 -1.29388,0.16396 -0.27922,-0.12563 -0.67341,-0.13917 -3.48978,-0.11985 -3.09432,0.0212 -3.20513,0.0163 -4.36034,-0.19587 -3.01992,-0.55452 -4.74676,-0.93843 -4.83048,-1.07391 -0.0263,-0.0426 -0.16525,-0.0774 -0.30874,-0.0774 -0.14349,0 -0.41747,-0.0739 -0.60884,-0.16417 -0.19136,-0.0903 -0.69084,-0.30167 -1.10994,-0.46972 -1.99229,-0.79889 -5.02324,-2.43696 -6.2309,-3.36748 -0.39147,-0.30163 -0.97846,-0.72127 -1.30443,-0.93253 -0.95378,-0.61816 -4.24032,-4.04681 -5.5809,-5.82221 -1.04914,-1.38945 -2.34348,-3.70821 -3.33381,-5.97244 -0.78021,-1.78383 -1.74349,-5.0168 -1.95635,-6.56596 -0.20792,-1.51318 -0.3569,-3.51047 -0.35598,-4.77249 0.001,-1.49304 0.34662,-5.192066 0.55759,-5.969006 0.0695,-0.25612 0.12689,-0.5457 0.12744,-0.64352 0.001,-0.18385 0.3292,-1.34133 0.7777,-2.74315 0.495,-1.54713 1.798,-4.62305 2.09816,-4.953 0.0847,-0.0931 0.23961,-0.34078 0.34419,-0.55033 0.25585,-0.51268 1.38056,-2.19199 2.26819,-3.38667 0.40348,-0.54305 1.32022,-1.58033 2.07282,-2.34538 1.3034,-1.32495 1.34638,-1.37978 1.26109,-1.60866 -0.0486,-0.13033 -0.27719,-0.65606 -0.50806,-1.16829 -0.55547,-1.23243 -0.98079,-2.38646 -1.20288,-3.26379 -0.0996,-0.39355 -0.21765,-0.85842 -0.26227,-1.03305 -0.0446,-0.17462 -0.11852,-0.3175 -0.16422,-0.3175 -0.0985,0 -3.76695,1.82015 -4.36495,2.1657 -0.22757,0.1315 -0.90906,0.56455 -1.51443,0.96234 -0.60536,0.3978 -1.13876,0.73812 -1.18533,0.75628 -0.0466,0.0182 -0.23707,0.15195 -0.42333,0.29732 -0.18627,0.14537 -0.56727,0.41541 -0.84667,0.60009 -0.62595,0.41375 -5.39906,5.17226 -6.07417,6.05561 -0.73647,0.9636 -1.57511,2.16466 -1.69383,2.42579 -0.0583,0.12824 -0.18885,0.31609 -0.29011,0.41745 -0.10127,0.10136 -0.30212,0.41805 -0.44635,0.70376 -0.14422,0.28571 -0.40203,0.73799 -0.5729,1.00507 -0.17087,0.26708 -0.61083,1.1064 -0.97769,1.86516 -0.61486,1.27171 -0.78606,1.67582 -1.26276,2.98077 -0.0936,0.25611 -0.2006,0.50376 -0.23787,0.55033 -0.0921,0.11511 -0.33998,1.10767 -0.33998,1.3615 0,0.11266 -0.0344,0.20483 -0.0764,0.20483 -0.21619,0 -0.8733,2.832216 -1.23447,5.320706 -0.19207,1.32338 -0.21298,1.72882 -0.2118,4.10633 0.001,2.84226 0.10121,4.80468 0.2904,5.7102 0.0653,0.31264 0.14556,0.84403 0.17833,1.18087 0.034,0.34913 0.10952,0.65389 0.17576,0.70887 0.0639,0.053 0.1171,0.21559 0.11822,0.36123 0.001,0.14564 0.0367,0.39815 0.0791,0.56114 0.0424,0.16298 0.13847,0.54398 0.21351,0.84666 0.96729,3.9017 3.46673,8.80599 6.42641,12.60962 1.28225,1.6479 4.02091,4.3225 5.92986,5.79116 2.68496,2.06569 5.97256,3.88352 9.1931,5.08319 2.08633,0.77716 5.65172,1.64517 7.70467,1.87573 0.67522,0.0758 1.36102,0.17165 1.524,0.21293 0.32699,0.0828 3.14933,0.0373 5.842,-0.0943 z m 6.13863,-11.16918 c -0.0286,-0.0463 -0.61784,-0.46215 -1.30939,-0.92412 -1.54609,-1.0328 -3.01222,-2.09179 -3.68624,-2.66257 -1.69309,-1.43376 -4.14153,-3.94515 -5.68392,-5.83007 -0.40833,-0.49901 -0.75029,-0.89906 -0.75992,-0.889 -0.01,0.01 -0.18691,0.51357 -0.39397,1.11894 -0.20705,0.60537 -0.59325,1.72932 -0.85822,2.49767 -0.26497,0.76835 -0.49959,1.44891 -0.52137,1.51237 -0.0628,0.18286 -0.21722,0.007 -0.71256,-0.81286 -0.24661,-0.40802 -0.54017,-0.84089 -0.65235,-0.96194 -0.20042,-0.21628 -0.42727,-0.5896 -1.53829,-2.53157 -0.68615,-1.19934 -1.938,-3.85077 -2.28654,-4.84291 -0.32469,-0.92426 -0.63598,-2.50876 -0.86476,-4.40175 -0.0974,-0.80612 -0.20638,-1.49602 -0.24211,-1.5331 -0.0357,-0.0371 -0.53755,0.378 -1.11514,0.9224 -1.35601,1.27806 -2.81108,2.57402 -2.89006,2.57402 -0.0986,0 -0.13656,-0.27709 -0.28412,-2.07433 -0.19866,-2.41986 -0.13413,-5.21734 0.16894,-7.32367 0.20799,-1.44547 1.37514,-6.611586 1.70484,-7.546056 0.0678,-0.19208 0.12322,-0.3635 0.12322,-0.38093 0,-0.10065 -0.5161,0.043 -2.45263,0.68262 -1.18595,0.39172 -2.18065,0.69715 -2.21046,0.67873 -0.16157,-0.0999 0.52081,-2.9535 0.98354,-4.11304 0.38907,-0.97496 1.40712,-3.14182 1.98103,-4.2165 0.41289,-0.77316 1.26932,-1.96638 2.16172,-3.01183 0.2385,-0.2794 0.67792,-0.8128 0.9765,-1.18533 0.29856,-0.37253 0.72844,-0.88688 0.95529,-1.143 0.49203,-0.55554 0.69024,-0.89833 0.56437,-0.97612 -0.30068,-0.18583 -2.36638,2.17461 -3.97887,4.54658 -0.41717,0.61366 -0.75849,1.16111 -0.75849,1.21656 0,0.0554 -0.076,0.19741 -0.16887,0.31549 -0.65432,0.83184 -2.37113,4.69903 -2.37113,5.34109 0,0.10479 -0.0358,0.22673 -0.0795,0.27097 -0.12616,0.12766 -0.59331,1.8692 -0.72562,2.7051 -0.0663,0.419096 -0.15842,0.971556 -0.20462,1.227666 -0.0462,0.25612 -0.13133,1.33249 -0.18916,2.39194 -0.18324,3.35695 0.0938,6.25177 0.85464,8.92967 2.22056,7.81568 7.29234,13.94932 14.48358,17.51595 3.18699,1.58065 6.27201,2.43014 10.12936,2.78923 0.83176,0.0774 1.52818,0.15588 1.54759,0.17433 0.0775,0.0737 0.35224,0.0279 0.30368,-0.0506 z m 4.58097,-0.37929 c 1.15651,-0.16443 1.77402,-0.415 3.009,-1.22093 5.17815,-3.37922 7.98861,-5.87937 11.43108,-10.16893 0.54188,-0.67522 1.10195,-1.33821 1.24461,-1.47331 l 0.25937,-0.24563 0.37974,0.81819 c 0.20887,0.45 0.48652,1.10305 0.61701,1.45122 0.13049,0.34816 0.28272,0.63344 0.33829,0.63394 0.128,0.001 0.36463,-0.33163 0.36463,-0.5128 0,-0.0755 0.082,-0.20995 0.18216,-0.29866 0.22497,-0.19919 1.28305,-1.7875 1.5739,-2.36262 0.11775,-0.23283 0.39685,-0.70908 0.62024,-1.05833 0.84726,-1.32467 1.14038,-2.91138 1.26691,-6.858 0.0455,-1.42029 0.10296,-2.67025 0.12763,-2.77771 l 0.0448,-0.19536 0.357,0.27615 c 0.59814,0.46268 1.47685,1.24089 2.84028,2.5154 0.71515,0.66852 1.32966,1.18287 1.36558,1.143 0.0662,-0.0734 0.0535,-0.24116 -0.25175,-3.32465 -0.28268,-2.85587 -0.7288,-5.37062 -1.36062,-7.66983 -0.49972,-1.818486 -1.06188,-3.147766 -2.24098,-5.299036 -0.34678,-0.6327 -0.63051,-1.17507 -0.63051,-1.20527 0,-0.0302 0.37147,0.0808 0.8255,0.24658 0.45402,0.16581 1.18745,0.42759 1.62983,0.58173 0.44239,0.15415 1.40693,0.51705 2.14344,0.80646 0.73652,0.28941 1.35973,0.50558 1.38493,0.48039 0.0252,-0.0252 -0.0684,-0.2481 -0.20807,-0.49534 -0.13963,-0.24724 -0.58617,-1.07817 -0.9923,-1.84652 -1.47106,-2.78305 -3.46846,-5.79364 -4.83314,-7.28478 -0.27529,-0.30079 -0.56878,-0.62785 -0.6522,-0.72678 -0.14848,-0.17607 -0.13117,-0.22366 0.8156,-2.24366 1.04141,-2.22191 1.72259,-3.98912 2.26113,-5.86612 0.43791,-1.52626 0.58861,-2.4114 0.58861,-3.45718 v -0.845 l -0.31247,0.0586 c -0.17186,0.0322 -0.75288,0.1917 -1.29117,0.35434 -0.53828,0.16264 -1.22238,0.36823 -1.52022,0.45687 -0.29785,0.0886 -0.60565,0.21917 -0.684,0.29009 -0.0784,0.0709 -0.19221,0.12893 -0.25301,0.12893 -0.0608,0 -0.47247,0.17145 -0.91484,0.381 -0.44236,0.20955 -0.83984,0.381 -0.88327,0.381 -0.0434,0 -0.20026,0.0911 -0.3485,0.20243 -0.14823,0.11134 -0.54258,0.33882 -0.87632,0.50552 -0.33373,0.1667 -0.71077,0.39946 -0.83786,0.51724 -0.12708,0.11778 -0.28265,0.21414 -0.3457,0.21414 -0.0631,0 -0.11464,0.0381 -0.11464,0.0847 0,0.0466 -0.074,0.0847 -0.16453,0.0847 -0.0905,0 -0.21496,0.0667 -0.2766,0.14817 -0.0616,0.0815 -0.24477,0.2207 -0.40697,0.30936 -0.16219,0.0887 -0.46202,0.25675 -0.66628,0.37353 l -0.37137,0.21233 -0.7293,-0.23539 c -0.4011,-0.12947 -1.37884,-0.47515 -2.17275,-0.76819 -2.57921,-0.95201 -5.01088,-1.6319 -7.06553,-1.97549 -0.7813,-0.13065 -3.27895,-0.35032 -3.98324,-0.35032 -0.98253,0 -4.52395,0.41125 -5.88043,0.68286 -1.60124,0.32063 -2.95447,0.72651 -4.572,1.37132 -0.6985,0.27845 -1.543,0.61379 -1.87667,0.74521 -0.75764,0.29841 -1.50431,0.67205 -2.27817,1.14002 -0.32936,0.19918 -1.03082,0.57879 -1.5588,0.84358 -1.47678,0.74064 -1.61002,0.8384 -1.61002,1.18137 0,0.21068 -0.0441,0.30355 -0.16176,0.3409 -0.23851,0.0757 -2.10599,1.93304 -2.20474,2.19277 -0.0465,0.12245 -0.12662,0.22264 -0.17792,0.22264 -0.10423,0 -0.46588,-0.36673 -0.69804,-0.70783 -0.0837,-0.12293 -0.19066,-0.2235 -0.23776,-0.2235 -0.0471,0 -0.26353,0.16807 -0.48095,0.3735 -0.53346,0.50402 -0.53735,0.7985 -0.0234,1.76627 0.27156,0.51133 0.3577,0.75702 0.3192,0.91041 -0.029,0.11554 -0.27343,0.47172 -0.54319,0.79151 -0.26974,0.31979 -0.60475,0.74279 -0.74445,0.94 -0.1397,0.19721 -0.38735,0.50914 -0.55034,0.69317 -0.39366,0.4445 -0.84599,1.0697 -1.07479,1.48556 -0.10219,0.18573 -0.24291,0.38154 -0.31271,0.43513 -0.0698,0.0536 -0.28538,0.37938 -0.47905,0.72398 -0.19366,0.34459 -0.46252,0.77893 -0.59745,0.9652 -0.13493,0.18627 -0.24533,0.37664 -0.24533,0.42304 0,0.0464 -0.13028,0.28065 -0.28952,0.52054 -0.15923,0.2399 -0.48061,0.83439 -0.71417,1.3211 -0.23355,0.48671 -0.57952,1.14001 -0.76881,1.45178 -0.52297,0.86138 -0.47829,0.89951 0.5638,0.48118 0.63361,-0.25435 2.50368,-0.97444 3.02903,-1.16636 0.42567,-0.1555 1.90158,-0.60135 1.99069,-0.60135 0.14306,0 0.0925,0.17672 -0.12431,0.43436 -0.49522,0.58854 -1.64979,2.73448 -1.91079,3.5515 -0.0857,0.2683 -0.22031,0.61249 -0.29911,0.76487 -0.0788,0.15238 -0.17784,0.39357 -0.22009,0.53599 -0.83963,2.830086 -1.28167,5.346946 -1.76693,10.060566 -0.0922,0.89561 -0.19107,1.75358 -0.21971,1.9066 l -0.0521,0.2782 0.2862,-0.16886 c 0.33531,-0.19783 1.02711,-0.79135 2.42547,-2.08088 0.55547,-0.51224 1.23435,-1.11321 1.50863,-1.33549 l 0.49869,-0.40416 0.0537,0.44649 c 0.0295,0.24557 0.0788,1.41804 0.10949,2.60549 0.0756,2.92616 0.23948,4.03875 0.96744,6.56702 0.36885,1.28103 1.54393,4.30218 2.10006,5.39928 0.28625,0.56469 0.29413,0.56133 0.66108,-0.2823 0.45004,-1.03461 1.62907,-3.446 1.70909,-3.49545 0.12515,-0.0774 0.19136,-0.007 1.17285,1.25178 1.43647,1.84183 2.09752,2.60606 3.46966,4.01118 1.31823,1.34992 2.88221,2.77069 4.08374,3.70981 0.86757,0.6781 5.12804,3.513 5.85087,3.89315 0.61849,0.32527 0.4925,0.31286 1.59061,0.15673 z m -3.3013,-5.89604 c -0.78666,-0.18468 -1.32669,-0.584 -2.95129,-2.18234 -0.87266,-0.85856 -2.16697,-2.18345 -2.87625,-2.94421 -1.12497,-1.2066 -1.331,-1.47238 -1.61377,-2.08174 -0.32056,-0.69078 -0.32365,-0.70742 -0.27867,-1.49948 0.0362,-0.63682 0.0911,-0.89105 0.268,-1.24074 0.12239,-0.24189 0.20451,-0.49107 0.18251,-0.55372 -0.022,-0.0627 0.0263,-0.20918 0.10737,-0.32559 0.27695,-0.39771 1.51276,-2.83486 1.85469,-3.65764 0.66052,-1.58938 1.02002,-3.0075 1.14935,-4.53386 0.0602,-0.71029 0.008,-0.75044 -0.4512,-0.34723 -0.16701,0.14663 -0.49589,0.35448 -0.73085,0.46189 -0.94001,0.42972 -3.04518,0.84702 -3.94086,0.78118 -0.37664,-0.0277 -0.36935,-0.0322 0.635,-0.39657 1.47573,-0.53532 2.08602,-0.87882 2.63064,-1.48065 0.49424,-0.54615 0.88303,-1.2599 0.88303,-1.62108 0,-0.61388 -0.36611,-0.89061 -2.07433,-1.56798 -1.33675,-0.53006 -1.75986,-0.78615 -1.95011,-1.18028 -0.19666,-0.40739 -0.85353,-1.96127 -1.09352,-2.586786 -0.31732,-0.82704 -0.87418,-1.94664 -1.03766,-2.08626 -0.0836,-0.0714 -1.06645,-0.54265 -2.18405,-1.04719 -1.1176,-0.50453 -2.08207,-0.95558 -2.14327,-1.00233 -0.0711,-0.0543 -0.0908,-0.16374 -0.0547,-0.30294 0.0311,-0.11987 0.0632,-0.25727 0.0712,-0.30532 0.008,-0.0481 0.0938,-0.20046 0.19052,-0.33867 0.0967,-0.13821 0.20217,-0.35982 0.23428,-0.49247 0.0615,-0.25405 2.79879,-3.07249 3.34732,-3.44655 0.39841,-0.27169 0.35537,-0.18187 -0.71038,1.48269 -0.48873,0.76334 -0.97322,1.56205 -1.07664,1.77492 -0.18561,0.38203 -0.18591,0.38862 -0.0232,0.50932 0.28219,0.20932 1.42135,0.87507 2.20728,1.28998 0.41336,0.21823 1.01827,0.575 1.34424,0.79282 0.32597,0.21783 0.75549,0.47895 0.95451,0.58027 0.3369,0.17152 1.83047,1.11807 2.45128,1.55349 0.34809,0.24415 1.82714,1.884606 2.20483,2.445466 0.34643,0.5144 0.55486,1.08997 0.82782,2.286 0.42185,1.84833 0.52114,5.35964 0.1995,7.05435 -0.17632,0.929 -0.61087,2.52768 -0.93691,3.44682 -0.0933,0.26311 -0.15854,0.56791 -0.14491,0.67733 0.0136,0.10942 -0.037,0.29419 -0.11252,0.41061 -0.0755,0.11642 -0.18226,0.38312 -0.23721,0.59267 -0.0549,0.20955 -0.13963,0.45547 -0.18819,0.54649 -0.0486,0.091 -0.13751,0.37676 -0.19769,0.635 -0.0602,0.25823 -0.16781,0.67213 -0.23917,0.91979 -0.16989,0.58951 -0.063,1.17721 0.3184,1.75054 0.40447,0.60799 2.11262,2.69008 2.67012,3.25465 0.66155,0.66992 2.2229,1.95876 2.7879,2.3013 0.41755,0.25314 0.55454,0.29004 1.17462,0.31642 0.61614,0.0262 0.70195,0.0122 0.70195,-0.1142 0,-0.22515 -0.47098,-0.60942 -0.93639,-0.76401 -0.43592,-0.14479 -0.58082,-0.28719 -1.11467,-1.09544 -0.20073,-0.3039 -0.39413,-0.47495 -0.7006,-0.61965 -1.06866,-0.50455 -1.1853,-0.57924 -1.35174,-0.86556 -0.23982,-0.41254 -0.23774,-1.27066 0.004,-1.73567 0.13663,-0.26259 0.29826,-0.40098 0.71954,-0.61611 0.98191,-0.50141 3.60866,-0.9355 5.02624,-0.83061 0.85482,0.0633 2.47138,0.40059 3.16722,0.66094 0.63252,0.23665 1.0841,0.70551 1.15871,1.20301 0.0945,0.63023 -0.0218,1.14341 -0.32301,1.42474 -0.32721,0.30567 -0.86104,0.58562 -1.23842,0.64946 -0.24563,0.0416 -0.32943,0.12332 -0.57049,0.55664 -0.15542,0.27936 -0.28303,0.58518 -0.28358,0.67959 -0.002,0.32987 -0.22987,0.52866 -0.67655,0.5901 -0.50237,0.0691 -0.87473,0.4251 -0.83177,0.79523 0.0243,0.20962 0.0485,0.22007 0.46952,0.20262 0.84759,-0.0351 1.78229,-0.62385 3.27876,-2.06522 1.39938,-1.34784 2.86448,-3.10471 3.47382,-4.16562 0.21018,-0.36593 0.22932,-0.46467 0.18867,-0.97367 -0.026,-0.32494 -0.23366,-1.18006 -0.4872,-2.00576 -1.57988,-5.14515 -1.70091,-5.69196 -1.75487,-7.92806 -0.0229,-0.94999 0.002,-2.09321 0.057,-2.667 0.11094,-1.14715 0.53944,-3.37782 0.72635,-3.78115 0.24681,-0.53256 1.49838,-2.005376 2.2698,-2.671006 0.69636,-0.60088 2.55941,-1.82493 4.33446,-2.84781 1.86604,-1.07531 2.85467,-1.69302 3.04341,-1.90158 0.24574,-0.27154 0.24223,-0.27872 -1.61633,-3.30079 -0.15539,-0.25267 -0.26486,-0.47706 -0.24327,-0.49864 0.11151,-0.11152 1.9832,1.55506 2.64384,2.35411 0.48421,0.58566 1.40806,2.28913 1.36364,2.5144 -0.0146,0.0743 -0.17903,0.18198 -0.36529,0.23932 -0.52584,0.16185 -4.1316,1.95102 -4.2878,2.12759 -0.0765,0.0865 -0.426,0.86212 -0.77662,1.72361 -1.39484,3.427146 -1.29615,3.273336 -2.34392,3.653156 -2.25749,0.81837 -2.2241,0.80324 -2.55556,1.15858 -0.17946,0.19239 -0.32307,0.43252 -0.32303,0.54016 0,0.37819 0.50333,1.26195 1.03684,1.82096 0.60746,0.63649 1.24119,0.98201 2.53686,1.38314 0.45215,0.13998 0.84493,0.29145 0.87283,0.33659 0.0955,0.15459 -1.069,0.0845 -2.10763,-0.1268 -1.51142,-0.30752 -1.84218,-0.42653 -2.60569,-0.93758 -0.38055,-0.25472 -0.71113,-0.44391 -0.73461,-0.42043 -0.0235,0.0235 0.003,0.29991 0.0583,0.61429 0.0556,0.31438 0.13952,0.8383 0.18656,1.16427 0.25378,1.75843 0.55761,2.62353 1.81955,5.18089 1.04392,2.11551 1.35548,2.86715 1.53899,3.71278 0.2547,1.1737 -0.0661,1.85163 -1.77034,3.74066 -1.36275,1.51055 -4.4443,4.50874 -5.04458,4.90814 -0.61682,0.4104 -1.01738,0.48666 -2.28799,0.43563 -1.0592,-0.0425 -1.37256,-0.19896 -1.50736,-0.75242 -0.10883,-0.44688 -0.2182,-0.48312 -0.29689,-0.0984 -0.0802,0.39226 -0.29269,0.59244 -0.78354,0.73821 -0.46704,0.13869 -1.67521,0.15622 -2.20445,0.032 z m -0.82193,-5.54093 c 0.11807,-0.46888 0.34689,-0.58812 1.31996,-0.68782 0.66401,-0.068 0.67789,-0.0742 0.70512,-0.31247 0.0153,-0.13368 0.005,-0.33371 -0.0228,-0.4445 -0.0434,-0.17312 -0.1018,-0.20144 -0.41511,-0.20144 -0.39546,0 -1.42605,0.31886 -1.77983,0.55066 -0.34238,0.22434 -0.53952,1.1762 -0.26539,1.28139 0.0699,0.0268 0.127,0.12553 0.127,0.21938 0,0.29401 0.22402,0.0198 0.33104,-0.4052 z m 3.50714,-0.80504 c 0.16176,-0.23094 0.0929,-0.45684 -0.21939,-0.7196 -0.19096,-0.16069 -0.33292,-0.20861 -0.56135,-0.1895 -0.30265,0.0253 -0.30604,0.0299 -0.33232,0.44611 -0.032,0.5068 0.0975,0.6378 0.6306,0.6378 0.2678,0 0.39138,-0.0448 0.48246,-0.17481 z m -7.39418,-17.16774 c 0,-0.0388 -0.0264,-0.0969 -0.0586,-0.12918 -0.0323,-0.0323 -0.071,-0.13993 -0.0862,-0.2393 -0.0381,-0.24966 -0.63886,-1.32141 -0.97487,-1.73916 -0.48128,-0.59837 -3.29213,-2.831996 -3.34903,-2.661296 -0.0155,0.0464 0.0496,0.49709 0.14471,1.00146 0.30091,1.596316 0.95377,2.613366 2.02453,3.153886 0.98509,0.49728 2.29948,0.848 2.29948,0.61359 z m 16.3399,-0.0555 c 0.0575,-0.0693 0.13926,-0.10466 0.1816,-0.0785 0.22369,0.13825 1.87078,-0.60567 2.30982,-1.04325 0.37101,-0.36977 0.76166,-0.99776 0.69139,-1.11145 -0.0266,-0.0431 0.004,-0.0983 0.067,-0.1226 0.16155,-0.062 0.73155,-2.286476 0.61559,-2.402426 -0.10262,-0.10262 -2.3965,1.65109 -2.99099,2.286686 -0.65469,0.69993 -1.62647,2.32224 -1.50692,2.51568 0.0785,0.12707 0.51577,0.0966 0.63254,-0.0441 z m 10.45463,-19.791776 c -0.55877,-0.57044 -1.18377,-1.21662 -1.38889,-1.43596 l -0.37294,-0.3988 0.48282,-0.63037 c 0.85722,-1.11916 2.56667,-2.48224 4.15493,-3.31303 0.83329,-0.43588 0.97889,-0.4633 0.97889,-0.18436 0,0.55536 -0.84488,3.07034 -1.66677,4.96153 -0.41502,0.95496 -1.01349,2.03546 -1.1285,2.03742 -0.024,4.2e-4 -0.50078,-0.46599 -1.05954,-1.03643 z m -8.38761,45.377606 c 0.27494,-0.18581 0.6502,-0.47362 0.83389,-0.63957 0.18369,-0.16595 0.38806,-0.30967 0.45417,-0.31937 0.0661,-0.01 0.23001,-0.13521 0.36424,-0.2789 0.13423,-0.14369 0.28015,-0.26126 0.32428,-0.26126 0.0441,0 0.20981,-0.11295 0.3682,-0.251 0.15838,-0.13805 0.63087,-0.54402 1.04997,-0.90215 2.09413,-1.78948 2.38591,-2.23466 2.06605,-3.15222 -0.11638,-0.33384 -0.20539,-0.33621 -0.37411,-0.01 -0.24158,0.46716 -2.61209,3.06177 -4.32199,4.73057 -1.65908,1.6192 -1.75223,1.75122 -0.7647,1.08385 z m -32.7808,-46.833806 c 0.21036,-0.16062 0.40667,-0.35511 0.43625,-0.4322 0.0306,-0.0798 -0.0727,-0.42025 -0.23995,-0.79073 -0.70588,-1.56336 -1.15021,-3.27913 -0.89072,-3.4395 0.22224,-0.13735 3.08905,1.34401 3.7934,1.96016 l 0.43358,0.37928 1.45536,-0.74566 c 0.80043,-0.41011 1.4543,-0.78342 1.45302,-0.82959 -0.003,-0.10472 -2.31749,-1.44338 -3.45472,-1.99807 l -0.84667,-0.41297 -1.397,0.34687 c -0.76835,0.19078 -1.56845,0.40188 -1.778,0.4691 -0.20955,0.0672 -0.50591,0.1544 -0.65856,0.19374 -0.44974,0.11588 -0.55145,0.24571 -0.49776,0.63532 0.0656,0.47576 0.76574,2.69235 1.16403,3.68509 0.18202,0.45371 0.33096,0.89994 0.33096,0.99162 0,0.37072 0.19962,0.36715 0.69678,-0.0125 z m 9.69519,-6.15241 c 2.12179,-0.78879 2.17822,-0.74458 -0.95164,-0.74579 -3.01179,-0.001 -2.95479,-0.0169 -1.86267,0.5148 0.2794,0.13603 0.63746,0.3411 0.79569,0.45571 0.16904,0.12245 0.40438,0.20839 0.57064,0.20839 0.15562,0 0.80721,-0.1949 1.44798,-0.43311 z m -11.54613,-1.18784 c 0.58641,-0.11777 0.58058,-0.25661 -0.0151,-0.3592 -0.47892,-0.0825 -0.69344,0.009 -0.69344,0.29718 0,0.18584 0.064,0.19145 0.70851,0.062 z m -91.59682,68.317126 c -0.15151,-0.44949 -16.01945,-65.482886 -15.98961,-65.532006 0.0212,-0.0349 2.16737,-0.0635 4.76922,-0.0635 4.4327,0 4.73331,0.009 4.77319,0.14816 0.0234,0.0815 2.80879,12.24492 6.18973,27.029846 3.38095,14.78491 6.16728,26.94834 6.19185,27.02983 0.0373,0.12372 0.14795,0.14817 0.67058,0.14817 h 0.62589 l 0.0939,-0.3175 c 0.0516,-0.17463 3.49323,-12.3952 7.648,-27.15684 l 7.55411,-26.839336 5.05692,-0.0218 5.05691,-0.0218 0.083,0.19117 c 0.0456,0.10514 3.51385,12.02121 7.70713,26.480166 4.19329,14.45895 7.71884,26.60333 7.83457,26.9875 l 0.21041,0.6985 h 0.62657 c 0.52389,0 0.63363,-0.0243 0.66962,-0.14816 0.0237,-0.0815 2.7511,-12.22587 6.06095,-26.9875 3.30985,-14.761646 6.05448,-26.925066 6.09918,-27.029846 l 0.0813,-0.1905 h 4.57381 c 4.11835,0 4.57382,0.0134 4.57382,0.13421 0,0.10594 -15.63896,64.851536 -15.80161,65.418966 -0.0399,0.13936 -0.40821,0.14817 -6.19799,0.14817 h -6.15553 l -7.49543,-25.4635 -7.49543,-25.463506 -0.63211,-0.0244 -0.63211,-0.0244 -7.23484,25.487876 -7.23485,25.48787 h -6.12271 c -4.82269,0 -6.13028,-0.0225 -6.15837,-0.10584 z M -145.7457,109.63068 V 76.695344 h 3.85233 3.85234 v 29.717776 29.71778 l 15.85383,0.0214 15.85383,0.0214 0.0222,3.19617 0.0222,3.19617 h -19.72836 -19.72835 z m 52.239332,0 V 76.695344 h 19.346332 19.346333 v 3.17477 3.17477 l -15.472833,0.0214 -15.472832,0.0214 -0.02146,12.0015 -0.02146,12.001506 h 13.927962 13.927954 v 3.21734 3.21733 h -13.927666 -13.927666 v 14.52033 14.52034 h -3.852333 -3.852333 z"
       id="path3092"
       inkscape:export-filename="s.png"
       inkscape:export-xdpi="96"
       inkscape:export-ydpi="96" /></g></svg>
